{"accessors":[{"bufferView":0,"componentType":5126,"count":1950,"max":[0.5,1.0,0.5],"min":[-0.5,-1.0,-0.5],"normalized":false,"type":"VEC3"},{"bufferView":1,"componentType":5126,"count":1950,"max":[1.0,0.0,1.0,1.0],"min":[-1.0,-2.157951530534774e-05,-1.0,1.0],"normalized":false,"type":"VEC4"},{"bufferView":2,"componentType":5126,"count":1950,"max":[1.0,1.0,1.0],"min":[-1.0,-1.0,-1.0],"normalized":false,"type":"VEC3"},{"bufferView":3,"componentType":5126,"count":1950,"max":[1.0,1.0],"min":[0.0,0.0],"normalized":false,"type":"VEC2"},{"bufferView":4,"componentType":5123,"count":10368,"max":[1949],"min":[0],"normalized":false,"type":"SCALAR"},{"bufferView":5,"componentType":5126,"count":4,"max":[30.0,0.0,40.0],"min":[-30.0,0.0,-40.0],"normalized":false,"type":"VEC3"},{"bufferView":6,"componentType":5126,"count":4,"max":[1.0,0.0,-1.5259021893143654e-05,1.0],"min":[1.0,0.0,-1.5259021893143654e-05,1.0],"normalized":false,"type":"VEC4"},{"bufferView":7,"componentType":5126,"count":4,"max":[0.0,1.0,-1.5259021893143654e-05],"min":[0.0,1.0,-1.5259021893143654e-05],"normalized":false,"type":"VEC3"},{"bufferView":8,"componentType":5126,"count":4,"max":[1.0,1.0],"min":[0.0,0.0],"normalized":false,"type":"VEC2"},{"bufferView":9,"componentType":5121,"count":6,"max":[3],"min":[0],"normalized":false,"type":"SCALAR"},{"bufferView":10,"componentType":5126,"count":4686,"max":[11.855766296386719,4.347229957580566,31.168813705444336],"min":[-25.20599365234375,-1.5,-25.614700317382813],"normalized":false,"type":"VEC3"},{"bufferView":11,"componentType":5126,"count":4686,"max":[1.0,0.05315130949020386,1.0,1.0],"min":[-1.0,-1.0,-1.0,-1.0],"normalized":false,"type":"VEC4"},{"bufferView":12,"componentType":5126,"count":4686,"max":[1.0,1.0,1.0],"min":[-1.0,-1.0,-1.0],"normalized":false,"type":"VEC3"},{"bufferView":13,"componentType":5126,"count":4686,"max":[1.0,1.0],"min":[0.0,0.0],"normalized":false,"type":"VEC2"},{"bufferView":14,"componentType":5123,"count":4686,"max":[4685],"min":[0],"normalized":false,"type":"SCALAR"},{"bufferView":15,"componentType":5126,"count":66,"max":[3.0350303649902344,4.34722900390625,14.613499641418457],"min":[2.0350303649902344,-1.5,0.502507209777832],"normalized":false,"type":"VEC3"},{"bufferView":16,"componentType":5126,"count":66,"max":[0.0,0.0,7.630093023180962e-05,-1.0],"min":[-1.0,-1.0,-1.0,-1.0],"normalized":false,"type":"VEC4"},{"bufferView":17,"componentType":5126,"count":66,"max":[1.0,1.0,1.0],"min":[-1.0,-1.0,-1.5259021893143654e-05],"normalized":false,"type":"VEC3"},{"bufferView":18,"componentType":5126,"count":66,"max":[1.0,1.0],"min":[0.0,0.0],"normalized":false,"type":"VEC2"},{"bufferView":19,"componentType":5121,"count":66,"max":[65],"min":[0],"normalized":false,"type":"SCALAR"}],"asset":{"generator":"Godot Engine v4.6.stable.mono.official@89cea143987d564363e15d207438530651d943ac","version":"2.0"},"bufferViews":[{"buffer":0,"byteLength":23400,"byteStride":12,"target":34962},{"buffer":0,"byteLength":31200,"byteOffset":23400,"byteStride":16,"target":34962},{"buffer":0,"byteLength":23400,"byteOffset":54600,"byteStride":12,"target":34962},{"buffer":0,"byteLength":15600,"byteOffset":78000,"byteStride":8,"target":34962},{"buffer":0,"byteLength":20736,"byteOffset":93600,"target":34963},{"buffer":0,"byteLength":48,"byteOffset":114336,"byteStride":12,"target":34962},{"buffer":0,"byteLength":64,"byteOffset":114384,"byteStride":16,"target":34962},{"buffer":0,"byteLength":48,"byteOffset":114448,"byteStride":12,"target":34962},{"buffer":0,"byteLength":32,"byteOffset":114496,"byteStride":8,"target":34962},{"buffer":0,"byteLength":6,"byteOffset":114528,"target":34963},{"buffer":0,"byteLength":56232,"byteOffset":114536,"byteStride":12,"target":34962},{"buffer":0,"byteLength":74976,"byteOffset":170768,"byteStride":16,"target":34962},{"buffer":0,"byteLength":56232,"byteOffset":245744,"byteStride":12,"target":34962},{"buffer":0,"byteLength":37488,"byteOffset":301976,"byteStride":8,"target":34962},{"buffer":0,"byteLength":9372,"byteOffset":339464,"target":34963},{"buffer":0,"byteLength":792,"byteOffset":348836,"byteStride":12,"target":34962},{"buffer":0,"byteLength":1056,"byteOffset":349628,"byteStride":16,"target":34962},{"buffer":0,"byteLength":792,"byteOffset":350684,"byteStride":12,"target":34962},{"buffer":0,"byteLength":528,"byteOffset":351476,"byteStride":8,"target":34962},{"buffer":0,"byteLength":66,"byteOffset":352004,"target":34963}],"buffers":[{"byteLength":352070,"uri":"main0.bin"}],"cameras":[{"perspective":{"yfov":1.3089969158172607,"zfar":4000.0,"znear":0.05000000074505806},"type":"perspective"}],"extensions":{"OMI_physics_shape":{"shapes":[{"capsule":{"height":2.0,"radius":0.5},"type":"capsule"}]}},"extensionsRequired":["KHR_node_visibility"],"extensionsUsed":["GODOT_single_root","KHR_node_visibility","OMI_physics_body","OMI_physics_shape"],"images":[{"uri":"textures%2F.png"}],"materials":[{"pbrMetallicRoughness":{"baseColorFactor":[1.0,1.0,1.0,1.0],"baseColorTexture":{"index":0},"metallicFactor":0.0,"roughnessFactor":1.0}},{},{"pbrMetallicRoughness":{"baseColorFactor":[1.0,1.0,1.0,1.0],"metallicFactor":0.0,"roughnessFactor":1.0}}],"meshes":[{"primitives":[{"attributes":{"NORMAL":2,"POSITION":0,"TANGENT":1,"TEXCOORD_0":3},"indices":4,"mode":4}]},{"primitives":[{"attributes":{"NORMAL":7,"POSITION":5,"TANGENT":6,"TEXCOORD_0":8},"indices":9,"material":0,"mode":4}]},{"primitives":[{"attributes":{"NORMAL":2,"POSITION":0,"TANGENT":1,"TEXCOORD_0":3},"indices":4,"mode":4}]},{"primitives":[{"attributes":{"NORMAL":2,"POSITION":0,"TANGENT":1,"TEXCOORD_0":3},"indices":4,"mode":4}]},{"primitives":[{"attributes":{"NORMAL":2,"POSITION":0,"TANGENT":1,"TEXCOORD_0":3},"indices":4,"mode":4}]},{"name":"CSGCombiner3D2","primitives":[{"attributes":{"NORMAL":12,"POSITION":10,"TANGENT":11,"TEXCOORD_0":13},"indices":14,"material":1,"mode":4},{"attributes":{"NORMAL":17,"POSITION":15,"TANGENT":16,"TEXCOORD_0":18},"indices":19,"material":2,"mode":4}]},{"primitives":[{"attributes":{"NORMAL":12,"POSITION":10,"TANGENT":11,"TEXCOORD_0":13},"indices":14,"mode":4},{"attributes":{"NORMAL":17,"POSITION":15,"TANGENT":16,"TEXCOORD_0":18},"indices":19,"material":2,"mode":4}]}],"nodes":[{"children":[1,16,17,18,19,20,82],"name":"Main"},{"children":[2,3,4,7,10,11],"extensions":{"OMI_physics_body":{"motion":{"type":"dynamic"}}},"name":"Player","translation":[-0.6668193340301514,2.4514670372009277,25.235769271850586]},{"mesh":0,"name":"MeshInstance3D"},{"extensions":{"OMI_physics_body":{"collider":{"shape":0}}},"name":"CollisionShape3D"},{"children":[5,6],"name":"PhysicsComponents"},{"name":"HoverComponent"},{"name":"MovementComponent"},{"children":[8,9],"name":"InputProcessor"},{"name":"KeyboardManager"},{"name":"MouseMovementController"},{"name":"Raycaster"},{"children":[12],"name":"Head","translation":[0.0,0.6434590816497803,0.0]},{"children":[13],"name":"YawGimbal"},{"children":[14],"name":"PitchGimbal"},{"children":[15],"name":"RollGimbal"},{"camera":0,"name":"Camera3D"},{"extensions":{"KHR_node_visibility":{"visible":false}},"mesh":1,"name":"MeshInstance3D2","translation":[-0.0025129318237304688,1.0243492126464844,-0.05436515808105469]},{"mesh":2,"name":"player","translation":[-3.9702258110046387,2.084221839904785,24.948200225830078]},{"mesh":3,"name":"maskman","translation":[-6.310617446899414,2.0842227935791016,-3.2786426544189453]},{"mesh":4,"name":"bouncer","translation":[-12.046216011047363,2.0842230319976807,-8.384302139282227]},{"children":[21,34,60,64],"mesh":5,"name":"CSGCombiner3D2","translation":[0.0,1.0,0.0]},{"children":[22,23,24,25,26,27,28,29,30,31,32,33],"name":"Floor"},{"name":"CSGBox3D","translation":[-8.569130897521973,-0.4601421356201172,9.243589401245117]},{"name":"CSGBox3D11","translation":[-12.260652542114258,-0.4601421356201172,-4.725377559661865]},{"name":"CSGBox3D12","translation":[-11.966329574584961,-0.4601421356201172,-17.219940185546875]},{"name":"CSGBox3D2","translation":[2.0800819396972656,-0.4601421356201172,22.623085021972656]},{"name":"CSGBox3D3","translation":[3.3581442832946777,-0.4601421356201172,-0.5302095413208008]},{"name":"CSGBox3D5","translation":[7.116202354431152,-0.4601402282714844,-6.883424282073975]},{"name":"CSGBox3D8","translation":[7.116202354431152,-0.4601402282714844,-12.04905891418457]},{"name":"CSGBox3D10","translation":[0.1414806842803955,-0.4601402282714844,-3.3566818237304688]},{"name":"CSGBox3D4","translation":[7.2200188636779785,-0.4601421356201172,-3.7055420875549316]},{"name":"CSGBox3D6","translation":[3.1582064628601074,-0.4601421356201172,-4.317501544952393]},{"name":"CSGBox3D9","translation":[3.1582064628601074,-0.4601421356201172,-14.540077209472656]},{"name":"CSGBox3D7","translation":[11.034074783325195,-0.4601421356201172,-9.974003791809082]},{"children":[35,44,45,46,47,48,49,50,51,52,53,54,55,56,57,58,59],"name":"props","translation":[0.0,-1.0,0.0]},{"children":[36,37,38,39,40,41,42,43],"name":"table"},{"name":"CSGCylinder3D","translation":[-3.9829654693603516,2.410943031311035,-22.037723541259766]},{"name":"CSGCylinder3D2","translation":[-3.9829654693603516,1.7004120349884033,-22.037723541259766]},{"name":"CSGCylinder3D3","translation":[-4.777768135070801,2.410943031311035,-15.0737943649292]},{"name":"CSGCylinder3D4","translation":[-4.777768135070801,1.7004120349884033,-15.0737943649292]},{"name":"CSGCylinder3D5","translation":[-20.358898162841797,2.410943031311035,-20.902952194213867]},{"name":"CSGCylinder3D6","translation":[-20.358898162841797,1.7004120349884033,-20.902952194213867]},{"name":"CSGCylinder3D7","translation":[-21.036226272583008,2.410943031311035,-13.483955383300781]},{"name":"CSGCylinder3D8","translation":[-21.036226272583008,1.7004120349884033,-13.483955383300781]},{"name":"CSGBox3D18","scale":[0.9999998807907104,0.27542048692703247,0.163274347782135],"translation":[-16.787466049194336,1.7048654556274414,14.249900817871094]},{"name":"CSGBox3D20","scale":[0.9999998807907104,0.27542048692703247,0.163274347782135],"translation":[-17.80234718322754,1.7048654556274414,-4.452331066131592]},{"name":"CSGBox3D21","scale":[0.9999998807907104,0.27542048692703247,0.163274347782135],"translation":[-5.88309383392334,2.376349925994873,-7.515374183654785]},{"name":"CSGBox3D19","rotation":[0.0,0.7071067690849304,0.0,0.7071067690849304],"scale":[0.9999998211860657,0.27542048692703247,0.16327433288097382],"translation":[-8.8717622756958,1.7048659324645996,1.5537004470825195]},{"name":"CSGBox3D22","rotation":[0.0,0.7071067690849304,0.0,0.7071067690849304],"scale":[0.9999998211860657,0.27542048692703247,0.16327433288097382],"translation":[2.8778252601623535,1.7048649787902832,25.241357803344727]},{"name":"CSGCylinder3D9","translation":[0.3108673095703125,1.6704292297363281,12.715203285217285]},{"name":"CSGCylinder3D62","translation":[1.2828757762908936,1.67042875289917,11.556890487670898]},{"name":"CSGCylinder3D22","translation":[-1.5277706384658813,1.6704292297363281,12.310770988464355]},{"name":"CSGCylinder3D82","translation":[-9.625468254089355,1.6704292297363281,16.9937744140625]},{"name":"CSGCylinder3D92","translation":[-7.729154586791992,1.6704292297363281,17.109100341796875]},{"name":"CSGCylinder3D10","translation":[-8.556314468383789,1.6704292297363281,15.901744842529297]},{"name":"CSGCylinder3D52","translation":[-3.5118088722229004,2.7048587799072266,8.65699291229248]},{"name":"CSGCylinder3D72","translation":[-15.11069393157959,2.7048587799072266,8.15187931060791]},{"name":"CSGCylinder3D32","translation":[-0.13536477088928223,1.6704292297363281,11.299715995788574]},{"name":"CSGCylinder3D42","translation":[-0.5602158904075623,3.6482338905334473,11.841028213500977]},{"name":"CSGCylinder3D11","translation":[-8.756928443908691,3.6482338905334473,17.008047103881836]},{"children":[61,62,63],"name":"barrel","translation":[-13.503131866455078,1.132277488708496,-17.461467742919922]},{"name":"CSGSphere3D","scale":[1.6186277866363525,1.8118613958358765,1.5117579698562622],"translation":[0.0,-0.3240797519683838,0.0]},{"name":"CSGBox3D13","translation":[0.01932525634765625,0.7839498519897461,-0.0025882720947265625]},{"name":"CSGBox3D23","translation":[0.49875640869140625,-1.7571072578430176,-0.0025882720947265625]},{"children":[65,66,67,68,69,70,71,72,73,74,75,76,77,78,79,80,81],"name":"Walls","translation":[0.0,-1.0,0.0]},{"name":"CSGBox3D14","translation":[-19.27683448791504,2.423614501953125,4.282332420349121]},{"name":"CSGBox3D15","translation":[-24.70599365234375,2.423614501953125,-17.58460235595703]},{"name":"CSGBox3D32","rotation":[0.0,-0.7071067690849304,0.0,0.7071067690849304],"translation":[-7.909473419189453,2.423614501953125,0.052667438983917236]},{"name":"CSGBox3D82","rotation":[0.0,-0.7071067690849304,0.0,0.7071067690849304],"translation":[6.558460235595703,2.423614501953125,14.146617889404297]},{"name":"CSGBox3D62","rotation":[0.0,-0.7071067690849304,0.0,0.7071067690849304],"translation":[-4.321643829345703,2.423614501953125,18.525602340698242]},{"name":"CSGBox3D102","rotation":[0.0,-0.7071067690849304,0.0,0.7071067690849304],"translation":[1.8493754863739014,2.423614501953125,30.668813705444336]},{"name":"CSGBox3D42","translation":[0.17964744567871094,2.0824859142303467,0.47574639320373535]},{"name":"CSGBox3D52","translation":[-13.582887649536133,2.7172515392303467,0.47574639320373535]},{"name":"CSGBox3D132","rotation":[0.0,-0.7071067690849304,0.0,0.7071067690849304],"translation":[-11.921828269958496,2.423614501953125,-9.720780372619629]},{"name":"CSGBox3D16","rotation":[0.0,-0.7071067690849304,0.0,0.7071067690849304],"translation":[-11.921828269958496,2.423614501953125,-24.76206398010254]},{"name":"CSGBox3D142","translation":[-13.830227851867676,2.7172515392303467,-9.297701835632324]},{"name":"CSGBox3D92","translation":[8.63708782196045,2.7172510623931885,17.953044891357422]},{"name":"CSGBox3D24","translation":[2.5350303649902344,2.423614501953125,7.5580034255981445]},{"name":"CSGBox3D122","translation":[-4.654166221618652,2.4236154556274414,-4.8715105056762695]},{"name":"CSGBox3D17","translation":[1.0249443054199219,2.4236154556274414,-17.302837371826172]},{"name":"CSGBox3D72","translation":[10.616571426391602,2.423614501953125,22.55162811279297]},{"name":"CSGBox3D112","translation":[-6.398868560791016,2.423614501953125,24.572114944458008]},{"mesh":6,"name":"CSGBakedMeshInstance3D","translation":[0.0,1.0,0.0]}],"samplers":[{"magFilter":9729,"minFilter":9987,"wrapS":10497,"wrapT":10497}],"scene":0,"scenes":[{"nodes":[0]}],"textures":[{"sampler":0,"source":0}]}